<svg width="64" height="64" viewBox="0 0 64 64" fill="none" xmlns="http://www.w3.org/2000/svg">
<g opacity="0.5" clip-path="url(#clip0_1626_11960)">
<path d="M64 26.6667V50.6667C64 58.0267 58.0267 64 50.6667 64H13.3333C5.97333 64 0 58.0267 0 50.6667V21.3333C0 13.9733 5.97333 8 13.3333 8H34.6667C36.1333 8 37.3333 9.2 37.3333 10.6667C37.3333 12.1333 36.1333 13.3333 34.6667 13.3333H13.3333C10.2667 13.3333 7.62667 15.0667 6.26667 17.5733L26.3467 37.6533C29.4667 40.7733 34.5333 40.7733 37.6533 37.6533L47.84 27.4667C48.88 26.4267 50.56 26.4267 51.6 27.4667C52.64 28.5067 52.64 30.1867 51.6 31.2267L41.4133 41.4133C38.8267 44 35.3867 45.3067 31.9733 45.3067C28.56 45.3067 25.1467 44 22.5333 41.4133L5.33333 24.1867V50.6667C5.33333 55.0667 8.93333 58.6667 13.3333 58.6667H50.6667C55.0667 58.6667 58.6667 55.0667 58.6667 50.6667V26.6667C58.6667 25.2 59.8667 24 61.3333 24C62.8 24 64 25.2 64 26.6667ZM42.6667 10.6667C42.6667 4.77333 47.44 0 53.3333 0C59.2267 0 64 4.77333 64 10.6667C64 16.56 59.2267 21.3333 53.3333 21.3333C47.44 21.3333 42.6667 16.56 42.6667 10.6667ZM48 10.6667C48 13.6 50.4 16 53.3333 16C56.2667 16 58.6667 13.6 58.6667 10.6667C58.6667 7.73333 56.2667 5.33333 53.3333 5.33333C50.4 5.33333 48 7.73333 48 10.6667Z" fill="white"/>
</g>
<defs>
<clipPath id="clip0_1626_11960">
<rect width="64" height="64" fill="white"/>
</clipPath>
</defs>
</svg>
