<svg width="21" height="20" viewBox="0 0 21 20" fill="none" xmlns="http://www.w3.org/2000/svg">
<path d="M15.9583 0.833313H4.29167C3.187 0.834636 2.12796 1.27405 1.34685 2.05516C0.565735 2.83628 0.126323 3.89532 0.125 4.99998L0.125 15C0.126323 16.1046 0.565735 17.1637 1.34685 17.9448C2.12796 18.7259 3.187 19.1653 4.29167 19.1666H15.9583C17.063 19.1653 18.122 18.7259 18.9032 17.9448C19.6843 17.1637 20.1237 16.1046 20.125 15V4.99998C20.1237 3.89532 19.6843 2.83628 18.9032 2.05516C18.122 1.27405 17.063 0.834636 15.9583 0.833313ZM4.29167 2.49998H15.9583C16.4573 2.50096 16.9446 2.65124 17.3575 2.93148C17.7703 3.21172 18.0899 3.6091 18.275 4.07248L11.8933 10.455C11.4237 10.9227 10.7878 11.1854 10.125 11.1854C9.46215 11.1854 8.82631 10.9227 8.35667 10.455L1.975 4.07248C2.16012 3.6091 2.47968 3.21172 2.89254 2.93148C3.3054 2.65124 3.79268 2.50096 4.29167 2.49998ZM15.9583 17.5H4.29167C3.62863 17.5 2.99274 17.2366 2.5239 16.7677C2.05506 16.2989 1.79167 15.663 1.79167 15V6.24998L7.17833 11.6333C7.96052 12.4135 9.02021 12.8517 10.125 12.8517C11.2298 12.8517 12.2895 12.4135 13.0717 11.6333L18.4583 6.24998V15C18.4583 15.663 18.1949 16.2989 17.7261 16.7677C17.2573 17.2366 16.6214 17.5 15.9583 17.5Z" fill="#696868"/>
</svg>
